# xmcd CD database file
#
# Track frame offsets:
#	150
#	12760
#	24121
#	35997
#	46356
#	59655
#	70192
#	82374
#	94641
#	105869
#	116048
#	128530
#	142879
#	154890
#	165178
#	173438
#	185656
#	196187
#	208259
#	221199
#	233125
#	243777
#	255226
#	267047
#	279427
#
# Disc length: 3866 seconds
#
# Revision: 4
# Processed by: cddbd v1.5.2PL0 Copyright (c) Steve Scherf et al.
# Submitted via: CDex 1.70
#
DISCID=510f1819
DTITLE=Various and track dates - Boogie Woogie Goodies CD1
DYEAR=2005
DGENRE=R&B
TTITLE0=Johnny Otis - Good Boogie Googie (1947)
TTITLE1=Milton Willis - Little Joe's Boogie (1949)
TTITLE2=Ivory Joe Hunter - All States Boogie (1947)
TTITLE3=Bumps Myers and the King Porter Orch. - Bump's Boogie (1947)
TTITLE4=Bill Johnson - Elevator Boogie (1947)
TTITLE5=Lightning Hopkins - Moving on out Boogie (1954)
TTITLE6=Louis Jordan - Caldonia Boogie (1945)
TTITLE7=Bullmoose Jackson - Cherokee Boogie (1952)
TTITLE8=Marvin Johnson - Save me a Boogie (1949)
TTITLE9=Big Bob Dougherty and the Kampus Kats - Big Bob's Boogie  (1951)
TTITLE10=Dave Bartholomew - Good Jax Boogie (1950)
TTITLE11=B. B. King - B. B. Boogie (1950)
TTITLE12=Joe Turner - Mardi Gras Boogie (1949)
TTITLE13=Tiny Bradshaw - Bride and Groom Boogie (1947)
TTITLE14=George Jenkins - Shufflin' Boogie (1954)
TTITLE15=Hal Singer - Disc Jockey Boogie (1948)
TTITLE16=Willie Johnson - Got the Boogie Woogie Blues (1950)
TTITLE17=Professor Longhair - Boogie Woogie (1949)
TTITLE18=Harold Burrage - Way Down Boogie (1952)
TTITLE19=Wynonie Harris - Wynonie's Boogie (1947)
TTITLE20=Bob Gaddy - Little Girl's Boogie (1952)
TTITLE21=Billy Wright - Married Woman's Boogie (1951)
TTITLE22=Tommy Ridgley - Boogie Woogie Mama (1950)
TTITLE23=Amos Milburn - Roomin' House Boogie (1949)
TTITLE24=Doc Pomus - Too Much Boogie (1950)
EXTD=Track dates provided.\nTitles of 2 songs corrected. YEAR: 2005
EXTT0=
EXTT1=
EXTT2=
EXTT3=
EXTT4=
EXTT5=
EXTT6=
EXTT7=
EXTT8=
EXTT9=
EXTT10=
EXTT11=
EXTT12=
EXTT13=
EXTT14=
EXTT15=
EXTT16=
EXTT17=
EXTT18=
EXTT19=
EXTT20=
EXTT21=
EXTT22=
EXTT23=
EXTT24=
PLAYORDER=
